<?xml version="1.0" encoding="iso-8859-1"?>
<!DOCTYPE svg PUBLIC "-//W3C//DTD SVG 1.1//EN" "http://www.w3.org/Graphics/SVG/1.1/DTD/svg11.dtd">
<svg 
 version="1.1" xmlns="http://www.w3.org/2000/svg" xmlns:xlink="http://www.w3.org/1999/xlink" x="0px" y="0px" width="512px"
	 height="512px" viewBox="0 0 512 512" style="enable-background:new 0 0 512 512;" xml:space="preserve"
><g fill="#ff0000" id="afcae5a789ccd549f9c6e2a2f80c8ade"><g></g><path style="display: inline;" d="M489.456,45.873c-2.001-2.935-5.373-4.63-8.922-4.491c-3.552,0.139-6.777,2.095-8.541,5.177
		l-1.813,3.193l-3.503,5.884l-28.043,42.435c-0.301,0.458-0.588,0.858-3.127,1.127c-2.545,0.266-6.749-0.171-11.519-1.629
		c-9.429-2.882-20.696-9.488-27.663-16.021c-2.743-2.973-4.646-5.92-5.258-7.635c-0.634-1.768-0.43-1.613-0.311-1.817l11.448-19.59
		c-0.02-0.021-0.04-0.036-0.06-0.061l20.778-36.049c1.738-3.009,1.841-6.692,0.276-9.795c-1.563-3.103-4.585-5.21-8.036-5.602
		c-1.342-0.143-2.493-0.179-3.507-0.25c-17.181-1.216-34.326,2.059-49.445,9.763c-0.053,0.017-0.11,0.038-0.163,0.053
		c3.3-1.914,3.147-1.886-0.523,0.258l0.063,0.065c-8.139,3.932-14.806,9.134-20.652,15.144
		c-17.745,18.247-25.388,43.346-26.54,66.218c-0.02,0.021-0.041,0.045-0.061,0.062c-1.127,25.673-4.803,42.043-8.325,49.887
		c0.102-0.188-0.18,0.461,0,0.122c-0.066,0.147-0.126,0.291-0.188,0.438l-0.062-0.062c-1.183,2.176-175.248,177.376-175.248,177.376
		l-0.686,0.69l-1.441,1.437c-11.755,11.755-29.104,16.586-48.507,16.586c-0.061-0.021-0.126-0.042-0.188-0.062
		c-25.927,0.473-47.18,16.132-60.894,35.363c-0.07,0.103-0.131,0.208-0.192,0.314c-19.374,29.055-17.214,66.892,2.442,95.693
		c2,2.936,5.373,4.631,8.921,4.492c3.548-0.14,6.778-2.095,8.542-5.182l1.629-2.878l2.625-4.631l0.126-0.126l25.723-38.867
		c0.085-0.127-0.024-0.339,2.066-0.564c2.091-0.224,5.806,0.1,10.012,1.381c8.395,2.549,18.618,8.456,24.788,14.266
		c0.017,0.021,0.045,0.046,0.062,0.066c2.388,2.601,3.87,5.132,4.319,6.447c0.188,0.56,0.257,0.764,0.286,0.853l-10.053,17.169
		c-0.065,0.188-0.131,0.377-0.188,0.563c-0.021,0.021-0.041,0.041-0.062,0.063l-0.249,0.501l-18.463,31.983
		c-1.74,3.009-1.842,6.692-0.278,9.795c1.563,3.104,4.585,5.209,8.036,5.602c1.109,0.119,2.201,0.176,3.258,0.249
		c15.662,1.104,31.349-1.833,45.187-8.884c0.033-0.018,0.028-0.049,0.065-0.066c0.029-0.012,0.029-0.045,0.061-0.061
		c0.049-0.028,0.074,0.028,0.123,0c0.024-0.021,0.041-0.042,0.065-0.062c11.997-6.246,22.065-15.516,29.602-26.352
		c0-0.041,0-0.082,0-0.123c7.979-11.682,13.311-25.185,13.584-39.622c1.271-21.358,1.923-43.345,13.017-56.203l173.117-172.365
		c0.025-0.021,0.045-0.041,0.065-0.062l1.563-1.567c4.051-4.051,8.661-7.268,13.834-9.824c0.057-0.033,0.127-0.036,0.188-0.065
		c11.934-4.998,27.376-6.57,42.622-6.57c0.144,0.024,0.29,0.045,0.437,0.062c28.405-1.274,51.251-17.459,66.342-38.805
		c0.045-0.082,0.086-0.163,0.126-0.249C513.313,118.711,510.97,77.395,489.456,45.873z M362.017,10.584
		c-0.021,0.016-0.009,0.024-0.053,0.053c-0.082,0.037-0.169,0.081-0.25,0.122C361.829,10.694,361.906,10.645,362.017,10.584z"></path></g></svg>