<?xml version="1.0" encoding="iso-8859-1"?>
<!DOCTYPE svg PUBLIC "-//W3C//DTD SVG 1.1//EN" "http://www.w3.org/Graphics/SVG/1.1/DTD/svg11.dtd">
<svg 
 version="1.1" xmlns="http://www.w3.org/2000/svg" xmlns:xlink="http://www.w3.org/1999/xlink" x="0px" y="0px" width="512px"
	 height="512px" viewBox="0 0 512 512" enable-background="new 0 0 512 512" xml:space="preserve"
><g fill="#333333" id="b75708d097f2188dff6617b0f00c05c9"><g></g><path display="inline" d="M423.064,234.227c2.079-7.369,3.269-15.108,3.269-23.139c0-47.037-38.129-80.908-85.166-80.908
		c-15.782,0-30.512,3.884-43.183,10.729c-22.968-32.674-61.808-53.313-105.859-53.313c-70.554,0-127.75,52.938-127.75,123.491
		c0,8.999,0.94,17.773,2.711,26.249C28.466,249.691,0.5,285.866,0.5,328.591c0,52.918,42.895,95.813,95.813,95.813l320.174-0.398
		c52.472,0,95.014-42.542,95.014-95.015C511.5,278.73,472.468,237.607,423.064,234.227z M349.146,377.563H162.853v-27.771
		c0.732-3.276,1.805-6.392,3.231-9.348c1.197-2.583,2.844-5.049,4.923-7.485c2.075-2.45,4.741-4.255,8.018-5.465
		c1.68-0.553,53.957-22.718,56.436-23.824v-8.034c-0.17-0.632-0.42-1.617-0.777-2.939c-0.366-1.318-0.736-2.649-1.156-4.014
		c-0.461-1.58-1.027-3.302-1.667-5.148c-2.308-4.316-4.146-9.194-5.51-14.671c-1.355-5.473-2.038-11.286-2.038-17.424
		c0-8.08,0.861-14.904,2.574-20.493c1.73-5.598,4.063-10.147,7.02-13.657c2.948-3.51,6.404-6.075,10.359-7.668
		c3.959-1.605,8.201-2.392,12.754-2.392c4.479,0,8.691,0.762,12.638,2.329c3.968,1.563,7.428,4.075,10.422,7.544
		c3.002,3.477,5.352,8.03,7.073,13.669c1.73,5.614,2.57,12.521,2.57,20.668c0,5.992-0.648,11.668-1.972,17.062
		c-1.313,5.402-3.14,10.247-5.447,14.572c-0.641,1.983-1.239,3.858-1.797,5.609c-0.482,1.53-0.923,2.986-1.322,4.366
		c-0.399,1.414-0.599,2.438-0.599,3.069v8.38c2.562,1.118,36.35,15.748,39.539,17.087c3.189,1.306,20.926,8.924,23.005,11.374
		c2.08,2.437,3.705,4.902,4.911,7.485c1.431,2.956,2.467,6.071,3.106,9.348V377.563z"></path></g></svg>